<svg width="371" height="68" viewBox="0 0 371 68" fill="none" xmlns="http://www.w3.org/2000/svg">
<path d="M2 3H368V65H2V3Z" fill="#ECFF10"/>
<path d="M4.5274 4.28572H9.58949V2H14.6516V4.28572H22.2447V2H29.8378V4.28572H37.431" stroke="#ECFF10" stroke-width="2.26897"/>
<path d="M169.043 4.28572H174.105V2H179.167V4.28572H186.76V2H194.353V4.28572H201.947" stroke="#ECFF10" stroke-width="2.26897"/>
<path d="M70.332 4.28572H75.3941V2H80.4562V4.28572H88.0493V2H95.6425V4.28572H103.236" stroke="#ECFF10" stroke-width="2.26897"/>
<path d="M234.848 4.28572H239.91V2H244.972V4.28572H252.565V2H260.158V4.28572H267.751" stroke="#ECFF10" stroke-width="2.26897"/>
<path d="M37.4297 4.28572H42.4918V2H47.5539V4.28572H55.147V2H62.7401V4.28572H70.3333" stroke="#ECFF10" stroke-width="2.26897"/>
<path d="M201.949 4.28572H207.011V2H212.073V4.28572H219.667V2H227.26V4.28572H234.853" stroke="#ECFF10" stroke-width="2.26897"/>
<path d="M103.238 4.28572H108.3V2H113.362V4.28572H120.956V2H128.549V4.28572H136.142" stroke="#ECFF10" stroke-width="2.26897"/>
<path d="M267.754 4.28572H272.816V2H277.878V4.28572H285.471V2H293.064V4.28572H300.657" stroke="#ECFF10" stroke-width="2.26897"/>
<path d="M136.145 4.28572H141.207V2H146.269V4.28572H153.862V2H161.455V4.28572H169.048" stroke="#ECFF10" stroke-width="2.26897"/>
<path d="M300.66 4.28572H305.722V2H310.784V4.28572H318.377V2H325.971V4.28572H333.564" stroke="#ECFF10" stroke-width="2.26897"/>
<path d="M333.562 4.28572H338.625V2H343.687V4.28572H351.28V2H358.873V4.28572H366.466" stroke="#ECFF10" stroke-width="2.26897"/>
<path d="M366.469 63.7143H361.407V66H356.345V63.7143H348.751V66H341.158V63.7143H333.565" stroke="#ECFF10" stroke-width="2.26897"/>
<path d="M201.953 63.7143H196.891V66H191.829V63.7143H184.236V66H176.643V63.7143H169.05" stroke="#ECFF10" stroke-width="2.26897"/>
<path d="M300.664 63.7143H295.602V66H290.54V63.7143H282.947V66H275.354V63.7143H267.76" stroke="#ECFF10" stroke-width="2.26897"/>
<path d="M136.148 63.7143H131.086V66H126.024V63.7143H118.431V66H110.838V63.7143H103.245" stroke="#ECFF10" stroke-width="2.26897"/>
<path d="M333.566 63.7143H328.504V66H323.442V63.7143H315.849V66H308.256V63.7143H300.663" stroke="#ECFF10" stroke-width="2.26897"/>
<path d="M169.047 63.7143H163.985V66H158.923V63.7143H151.33V66H143.736V63.7143H136.143" stroke="#ECFF10" stroke-width="2.26897"/>
<path d="M267.758 63.7143H262.696V66H257.634V63.7143H250.041V66H242.447V63.7143H234.854" stroke="#ECFF10" stroke-width="2.26897"/>
<path d="M103.242 63.7143H98.1801V66H93.118V63.7143H85.5249V66H77.9317V63.7143H70.3386" stroke="#ECFF10" stroke-width="2.26897"/>
<path d="M234.852 63.7143H229.789V66H224.727V63.7143H217.134V66H209.541V63.7143H201.948" stroke="#ECFF10" stroke-width="2.26897"/>
<path d="M70.3359 63.7143H65.2738V66H60.2118V63.7143H52.6186V66H45.0255V63.7143H37.4324" stroke="#ECFF10" stroke-width="2.26897"/>
<path d="M37.4336 63.7143H32.3715V66H27.3094V63.7143H19.7163V66H12.1231V63.7143H4.53002" stroke="#ECFF10" stroke-width="2.26897"/>
<path d="M366.469 4.28564V8.85708H369V13.4285H366.469V20.2857H369V27.1428H366.469V33.9999" stroke="#ECFF10" stroke-width="2.26897"/>
<path d="M366.469 34V38.5714H369V43.1429H366.469V50H369V56.8572H366.469V63.7143" stroke="#ECFF10" stroke-width="2.26897"/>
<path d="M4.53086 63.7145V59.143H1.99982L1.99982 54.5716H4.53086V47.7145H1.99982V40.8573H4.53086L4.53086 34.0002" stroke="#ECFF10" stroke-width="2.26897"/>
<path d="M4.53086 34.0001V29.4287H1.99982L1.99982 24.8573H4.53086V18.0001H1.99982V11.143H4.53086L4.53086 4.28582" stroke="#ECFF10" stroke-width="2.26897"/>
</svg>
