<svg width="1440" height="94" viewBox="0 0 1440 94" fill="none" xmlns="http://www.w3.org/2000/svg">
<rect width="1487.38" height="80" transform="matrix(1 0.000396465 4.38358e-05 1 0 13.324)" fill="#7621FF"/>
<g clip-path="url(#clip0_26_909)">
<rect width="1487.38" height="80" transform="matrix(1 0.000396465 4.38358e-05 1 0.1875 0.000793457)" fill="#EBFF00"/>
<path d="M49.6116 28.032L59.7126 18.8756L56.8864 32.1881L70.5299 31.6404L59.7755 40.0279L70.5806 48.3484L56.9319 47.8853L59.841 61.1799L49.6852 52.0856L43.3368 64.1328L41.425 50.6605L28.7899 55.8228L36.0161 44.2768L23.0089 40.1411L35.9908 35.9228L28.6957 24.4234L41.3619 29.5083L43.1919 16.0254L49.6116 28.032Z" fill="#602FD9"/>
<path d="M48.3963 35.0326L52.9553 30.8983L51.6803 36.9071L57.8373 36.6605L52.9858 40.447L57.8615 44.2027L51.7004 43.9932L53.0137 49.9959L48.4297 45.8897L45.5638 51.3283L44.7004 45.2464L38.998 47.5767L42.2594 42.3652L36.3872 40.4968L42.2486 38.5941L38.9551 33.4022L44.6725 35.6975L45.4967 29.6116L48.3963 35.0326Z" fill="#BDFD50"/>
<path d="M97.0447 51.836L97.0445 47.836L93.0445 47.8345L93.044 35.8345L97.044 35.836L97.0438 31.836L109.044 31.8408L109.044 35.8408L113.044 35.8424L113.045 47.8424L109.045 47.8408L109.045 51.8408L97.0447 51.836ZM101.045 47.6776L105.045 47.6792L105.044 35.9992L101.044 35.9976L101.045 47.6776ZM122.325 51.8461L122.324 31.8461L130.324 31.8492L130.324 35.8492L134.324 35.8508L134.324 39.8508L138.324 39.8524L138.324 31.8524L146.324 31.8556L146.325 51.8556L138.325 51.8524L138.325 47.8524L134.325 47.8508L134.324 43.8508L130.324 43.8492L130.325 51.8492L122.325 51.8461ZM159.605 51.8608L159.605 47.8608L155.605 47.8593L155.604 35.8593L159.604 35.8608L159.604 31.8608L175.604 31.8672L175.604 35.8672L163.604 35.8624L163.605 47.8624L167.605 47.864L167.604 39.864L175.604 39.8672L175.605 47.8672L171.605 47.8656L171.605 51.8656L159.605 51.8608ZM188.885 51.8725L188.884 47.8725L184.884 47.8709L184.884 35.8709L188.884 35.8725L188.884 31.8725L200.884 31.8772L200.884 35.8772L204.884 35.8788L204.884 47.8788L200.884 47.8772L200.885 51.8772L188.885 51.8725ZM192.884 47.714L196.884 47.7156L196.884 36.0356L192.884 36.034L192.884 47.714ZM214.165 51.8825L214.164 31.8825L222.164 31.8856L222.165 51.8857L214.165 51.8825ZM231.445 51.8893L231.444 31.8893L239.444 31.8925L239.444 35.8925L243.444 35.8941L243.444 39.8941L247.444 39.8957L247.444 31.8957L255.444 31.8988L255.445 51.8988L247.445 51.8957L247.444 47.8957L243.444 47.8941L243.444 43.8941L239.444 43.8925L239.445 51.8925L231.445 51.8893ZM268.725 51.9041L268.724 47.9041L264.724 47.9025L264.724 35.9025L268.724 35.9041L268.724 31.9041L284.724 31.9105L284.724 35.9105L272.724 35.9057L272.724 47.9057L276.724 47.9073L276.724 39.9073L284.724 39.9105L284.724 47.9105L280.724 47.9089L280.725 51.9089L268.725 51.9041ZM311.285 51.921L311.284 31.921L327.284 31.9273L327.284 35.9273L331.284 35.9289L331.284 39.9289L327.284 39.9273L327.284 43.9273L319.284 43.9242L319.285 51.9242L311.285 51.921ZM319.284 39.9242L323.124 39.9257L323.124 35.9257L319.284 35.9242L319.284 39.9242ZM340.565 51.9326L340.564 31.9326L356.564 31.9389L356.564 35.9389L360.564 35.9405L360.564 39.9405L356.564 39.9389L356.564 47.9389L360.564 47.9405L360.565 51.9405L352.565 51.9374L352.564 47.9373L348.564 47.9358L348.565 51.9358L340.565 51.9326ZM348.564 39.9358L352.564 39.9373L352.564 35.9373L348.564 35.9358L348.564 39.9358ZM373.845 51.9458L373.844 47.9458L369.844 47.9442L369.844 35.9442L373.844 35.9458L373.844 31.9458L385.844 31.9505L385.844 35.9505L389.844 35.9521L389.844 47.9521L385.844 47.9505L385.845 51.9505L373.845 51.9458ZM377.844 47.7874L381.844 47.789L381.844 36.109L377.844 36.1074L377.844 47.7874ZM403.125 51.9574L403.124 47.9574L399.124 47.9558L399.124 43.9558L407.124 43.959L407.124 47.959L411.124 47.9606L411.124 31.9606L419.124 31.9637L419.124 47.9637L415.124 47.9622L415.125 51.9622L403.125 51.9574ZM428.405 51.9674L428.404 31.9674L444.404 31.9738L444.404 35.9738L436.404 35.9706L436.404 39.9706L444.404 39.9738L444.404 43.9738L436.404 43.9706L436.404 47.9706L444.404 47.9738L444.405 51.9738L428.405 51.9674ZM457.685 51.979L457.684 47.979L453.684 47.9774L453.684 35.9774L457.684 35.979L457.684 31.979L469.684 31.9838L469.684 35.9838L473.684 35.9854L473.684 39.9854L465.684 39.9822L465.684 35.9822L461.684 35.9806L461.684 47.9806L465.684 47.9822L465.684 43.9822L473.684 43.9854L473.684 47.9854L469.684 47.9838L469.685 51.9838L457.685 51.979ZM486.965 51.9906L486.964 35.9906L482.964 35.989L482.964 31.989L498.964 31.9954L498.964 35.9954L494.964 35.9938L494.965 51.9938L486.965 51.9906ZM508.245 51.9991L508.244 47.9991L520.244 48.0038L520.244 44.0038L512.244 44.0007L512.244 40.0007L508.244 39.9991L508.244 35.9991L512.244 36.0007L512.244 32.0007L528.244 32.007L528.244 36.007L516.244 36.0022L516.244 40.0022L524.244 40.0054L524.244 44.0054L528.244 44.007L528.244 48.007L524.244 48.0054L524.245 52.0054L508.245 51.9991Z" fill="#010101"/>
<path d="M585.612 28.2445L595.713 19.0881L592.886 32.4006L606.53 31.8529L595.775 40.2404L606.581 48.5609L592.932 48.0978L595.841 61.3924L585.685 52.2981L579.337 64.3453L577.425 50.873L564.79 56.0353L572.016 44.4894L559.009 40.3536L571.991 36.1353L564.696 24.636L577.362 29.7208L579.192 16.2379L585.612 28.2445Z" fill="#602FD9"/>
<path d="M584.396 35.2451L588.955 31.1108L587.68 37.1196L593.837 36.873L588.986 40.6595L593.861 44.4152L587.7 44.2057L589.014 50.2084L584.43 46.1022L581.564 51.5409L580.7 45.4589L574.998 47.7892L578.259 42.5777L572.387 40.7093L578.249 38.8066L574.955 33.6147L580.672 35.91L581.497 29.8241L584.396 35.2451Z" fill="#BDFD50"/>
<path d="M633.045 52.0486L633.045 48.0486L629.045 48.047L629.044 36.047L633.044 36.0486L633.044 32.0486L645.044 32.0533L645.044 36.0533L649.044 36.0549L649.045 48.0549L645.045 48.0533L645.045 52.0533L633.045 52.0486ZM637.045 47.8901L641.045 47.8917L641.044 36.2117L637.044 36.2101L637.045 47.8901ZM658.325 52.0586L658.324 32.0586L666.324 32.0617L666.324 36.0617L670.324 36.0633L670.324 40.0633L674.324 40.0649L674.324 32.0649L682.324 32.0681L682.325 52.0681L674.325 52.0649L674.325 48.0649L670.325 48.0633L670.324 44.0633L666.324 44.0617L666.325 52.0617L658.325 52.0586ZM695.605 52.0734L695.605 48.0734L691.605 48.0718L691.604 36.0718L695.604 36.0734L695.604 32.0734L711.604 32.0797L711.604 36.0797L699.604 36.0749L699.605 48.0749L703.605 48.0765L703.604 40.0765L711.604 40.0797L711.605 48.0797L707.605 48.0781L707.605 52.0781L695.605 52.0734ZM724.885 52.085L724.884 48.085L720.884 48.0834L720.884 36.0834L724.884 36.085L724.884 32.085L736.884 32.0897L736.884 36.0897L740.884 36.0913L740.884 48.0913L736.884 48.0897L736.885 52.0897L724.885 52.085ZM728.884 47.9266L732.884 47.9281L732.884 36.2481L728.884 36.2465L728.884 47.9266ZM750.165 52.095L750.164 32.095L758.164 32.0982L758.165 52.0982L750.165 52.095ZM767.445 52.1018L767.444 32.1018L775.444 32.105L775.444 36.105L779.444 36.1066L779.444 40.1066L783.444 40.1082L783.444 32.1082L791.444 32.1114L791.445 52.1114L783.445 52.1082L783.444 48.1082L779.444 48.1066L779.444 44.1066L775.444 44.105L775.445 52.105L767.445 52.1018ZM804.725 52.1166L804.724 48.1166L800.724 48.115L800.724 36.115L804.724 36.1166L804.724 32.1166L820.724 32.123L820.724 36.123L808.724 36.1182L808.724 48.1182L812.724 48.1198L812.724 40.1198L820.724 40.123L820.724 48.123L816.724 48.1214L816.725 52.1214L804.725 52.1166ZM847.285 52.1335L847.284 32.1335L863.284 32.1398L863.284 36.1398L867.284 36.1414L867.284 40.1414L863.284 40.1398L863.284 44.1398L855.284 44.1367L855.285 52.1367L847.285 52.1335ZM855.284 40.1367L859.124 40.1382L859.124 36.1382L855.284 36.1367L855.284 40.1367ZM876.565 52.1451L876.564 32.1451L892.564 32.1514L892.564 36.1514L896.564 36.153L896.564 40.153L892.564 40.1514L892.564 48.1514L896.564 48.153L896.565 52.153L888.565 52.1499L888.564 48.1499L884.564 48.1483L884.565 52.1483L876.565 52.1451ZM884.564 40.1483L888.564 40.1499L888.564 36.1499L884.564 36.1483L884.564 40.1483ZM909.845 52.1583L909.844 48.1583L905.844 48.1567L905.844 36.1567L909.844 36.1583L909.844 32.1583L921.844 32.1631L921.844 36.1631L925.844 36.1646L925.844 48.1646L921.844 48.1631L921.845 52.1631L909.845 52.1583ZM913.844 47.9999L917.844 48.0015L917.844 36.3215L913.844 36.3199L913.844 47.9999ZM939.125 52.1699L939.124 48.1699L935.124 48.1683L935.124 44.1683L943.124 44.1715L943.124 48.1715L947.124 48.1731L947.124 32.1731L955.124 32.1762L955.124 48.1762L951.124 48.1747L951.125 52.1747L939.125 52.1699ZM964.405 52.1799L964.404 32.1799L980.404 32.1863L980.404 36.1863L972.404 36.1831L972.404 40.1831L980.404 40.1863L980.404 44.1863L972.404 44.1831L972.404 48.1831L980.404 48.1863L980.405 52.1863L964.405 52.1799ZM993.685 52.1915L993.684 48.1915L989.684 48.1899L989.684 36.1899L993.684 36.1915L993.684 32.1915L1005.68 32.1963L1005.68 36.1963L1009.68 36.1979L1009.68 40.1979L1001.68 40.1947L1001.68 36.1947L997.684 36.1931L997.684 48.1931L1001.68 48.1947L1001.68 44.1947L1009.68 44.1979L1009.68 48.1979L1005.68 48.1963L1005.68 52.1963L993.685 52.1915ZM1022.96 52.2031L1022.96 36.2031L1018.96 36.2016L1018.96 32.2016L1034.96 32.2079L1034.96 36.2079L1030.96 36.2063L1030.96 52.2063L1022.96 52.2031ZM1044.24 52.2116L1044.24 48.2116L1056.24 48.2163L1056.24 44.2163L1048.24 44.2132L1048.24 40.2132L1044.24 40.2116L1044.24 36.2116L1048.24 36.2132L1048.24 32.2132L1064.24 32.2195L1064.24 36.2195L1052.24 36.2148L1052.24 40.2148L1060.24 40.2179L1060.24 44.2179L1064.24 44.2195L1064.24 48.2195L1060.24 48.2179L1060.24 52.2179L1044.24 52.2116Z" fill="#010101"/>
<path d="M1121.61 28.4571L1131.71 19.3006L1128.89 32.6131L1142.53 32.0654L1131.78 40.4529L1142.58 48.7734L1128.93 48.3104L1131.84 61.6049L1121.68 52.5106L1115.34 64.5578L1113.42 51.0855L1100.79 56.2478L1108.02 44.7019L1095.01 40.5661L1107.99 36.3479L1100.7 24.8485L1113.36 29.9333L1115.19 16.4504L1121.61 28.4571Z" fill="#602FD9"/>
<path d="M1120.4 35.4576L1124.96 31.3233L1123.68 37.3321L1129.84 37.0855L1124.99 40.872L1129.86 44.6277L1123.7 44.4182L1125.01 50.4209L1120.43 46.3147L1117.56 51.7534L1116.7 45.6714L1111 48.0018L1114.26 42.7902L1108.39 40.9218L1114.25 39.0191L1110.95 33.8272L1116.67 36.1225L1117.5 30.0366L1120.4 35.4576Z" fill="#BDFD50"/>
<path d="M1169.04 52.2611L1169.04 48.2611L1165.04 48.2595L1165.04 36.2595L1169.04 36.2611L1169.04 32.2611L1181.04 32.2658L1181.04 36.2658L1185.04 36.2674L1185.04 48.2674L1181.04 48.2658L1181.04 52.2658L1169.04 52.2611ZM1173.04 48.1026L1177.04 48.1042L1177.04 36.4242L1173.04 36.4226L1173.04 48.1026ZM1194.32 52.2711L1194.32 32.2711L1202.32 32.2743L1202.32 36.2743L1206.32 36.2758L1206.32 40.2758L1210.32 40.2774L1210.32 32.2774L1218.32 32.2806L1218.32 52.2806L1210.32 52.2774L1210.32 48.2774L1206.32 48.2758L1206.32 44.2758L1202.32 44.2743L1202.32 52.2743L1194.32 52.2711ZM1231.6 52.2859L1231.6 48.2859L1227.6 48.2843L1227.6 36.2843L1231.6 36.2859L1231.6 32.2859L1247.6 32.2922L1247.6 36.2922L1235.6 36.2875L1235.6 48.2875L1239.6 48.289L1239.6 40.289L1247.6 40.2922L1247.6 48.2922L1243.6 48.2906L1243.6 52.2906L1231.6 52.2859ZM1260.88 52.2975L1260.88 48.2975L1256.88 48.2959L1256.88 36.2959L1260.88 36.2975L1260.88 32.2975L1272.88 32.3022L1272.88 36.3022L1276.88 36.3038L1276.88 48.3038L1272.88 48.3022L1272.88 52.3022L1260.88 52.2975ZM1264.88 48.1391L1268.88 48.1406L1268.88 36.4606L1264.88 36.4591L1264.88 48.1391ZM1286.16 52.3075L1286.16 32.3075L1294.16 32.3107L1294.16 52.3107L1286.16 52.3075ZM1303.44 52.3143L1303.44 32.3143L1311.44 32.3175L1311.44 36.3175L1315.44 36.3191L1315.44 40.3191L1319.44 40.3207L1319.44 32.3207L1327.44 32.3239L1327.44 52.3239L1319.44 52.3207L1319.44 48.3207L1315.44 48.3191L1315.44 44.3191L1311.44 44.3175L1311.44 52.3175L1303.44 52.3143ZM1340.72 52.3291L1340.72 48.3291L1336.72 48.3275L1336.72 36.3275L1340.72 36.3291L1340.72 32.3291L1356.72 32.3355L1356.72 36.3355L1344.72 36.3307L1344.72 48.3307L1348.72 48.3323L1348.72 40.3323L1356.72 40.3355L1356.72 48.3355L1352.72 48.3339L1352.72 52.3339L1340.72 52.3291ZM1383.28 52.346L1383.28 32.346L1399.28 32.3523L1399.28 36.3523L1403.28 36.3539L1403.28 40.3539L1399.28 40.3523L1399.28 44.3523L1391.28 44.3492L1391.28 52.3492L1383.28 52.346ZM1391.28 40.3492L1395.12 40.3507L1395.12 36.3507L1391.28 36.3492L1391.28 40.3492ZM1412.56 52.3576L1412.56 32.3576L1428.56 32.364L1428.56 36.364L1432.56 36.3655L1432.56 40.3655L1428.56 40.364L1428.56 48.364L1432.56 48.3655L1432.56 52.3655L1424.56 52.3624L1424.56 48.3624L1420.56 48.3608L1420.56 52.3608L1412.56 52.3576ZM1420.56 40.3608L1424.56 40.3624L1424.56 36.3624L1420.56 36.3608L1420.56 40.3608ZM1445.84 52.3708L1445.84 48.3708L1441.84 48.3692L1441.84 36.3692L1445.84 36.3708L1445.84 32.3708L1457.84 32.3756L1457.84 36.3756L1461.84 36.3771L1461.84 48.3771L1457.84 48.3756L1457.84 52.3756L1445.84 52.3708ZM1449.84 48.2124L1453.84 48.214L1453.84 36.534L1449.84 36.5324L1449.84 48.2124ZM1475.12 52.3824L1475.12 48.3824L1471.12 48.3808L1471.12 44.3808L1479.12 44.384L1479.12 48.384L1483.12 48.3856L1483.12 32.3856L1491.12 32.3888L1491.12 48.3888L1487.12 48.3872L1487.12 52.3872L1475.12 52.3824ZM1500.4 52.3924L1500.4 32.3924L1516.4 32.3988L1516.4 36.3988L1508.4 36.3956L1508.4 40.3956L1516.4 40.3988L1516.4 44.3988L1508.4 44.3956L1508.4 48.3956L1516.4 48.3988L1516.4 52.3988L1500.4 52.3924ZM1529.68 52.404L1529.68 48.404L1525.68 48.4025L1525.68 36.4025L1529.68 36.404L1529.68 32.404L1541.68 32.4088L1541.68 36.4088L1545.68 36.4104L1545.68 40.4104L1537.68 40.4072L1537.68 36.4072L1533.68 36.4056L1533.68 48.4056L1537.68 48.4072L1537.68 44.4072L1545.68 44.4104L1545.68 48.4104L1541.68 48.4088L1541.68 52.4088L1529.68 52.404ZM1558.96 52.4157L1558.96 36.4157L1554.96 36.4141L1554.96 32.4141L1570.96 32.4204L1570.96 36.4204L1566.96 36.4188L1566.96 52.4188L1558.96 52.4157ZM1580.24 52.4241L1580.24 48.4241L1592.24 48.4288L1592.24 44.4288L1584.24 44.4257L1584.24 40.4257L1580.24 40.4241L1580.24 36.4241L1584.24 36.4257L1584.24 32.4257L1600.24 32.432L1600.24 36.432L1588.24 36.4273L1588.24 40.4273L1596.24 40.4304L1596.24 44.4304L1600.24 44.432L1600.24 48.432L1596.24 48.4304L1596.24 52.4304L1580.24 52.4241Z" fill="#010101"/>
</g>
<defs>
<clipPath id="clip0_26_909">
<rect width="1487.38" height="80" fill="white" transform="matrix(1 0.000396465 4.38358e-05 1 0.1875 0.000793457)"/>
</clipPath>
</defs>
</svg>
